<svg width="32" height="32" viewBox="0 0 32 32" fill="none" xmlns="http://www.w3.org/2000/svg">
<path d="M30.7409 12.7271H29.5007V12.6632H15.644V18.8217H24.3453C23.0758 22.4068 19.6648 24.9803 15.644 24.9803C10.5424 24.9803 6.40617 20.844 6.40617 15.7424C6.40617 10.6409 10.5424 6.50462 15.644 6.50462C17.9989 6.50462 20.1413 7.39299 21.7725 8.8441L26.1274 4.48924C23.3776 1.92651 19.6994 0.346069 15.644 0.346069C7.14135 0.346069 0.24762 7.2398 0.24762 15.7424C0.24762 24.2451 7.14135 31.1388 15.644 31.1388C24.1467 31.1388 31.0404 24.2451 31.0404 15.7424C31.0404 14.7101 30.9341 13.7024 30.7409 12.7271Z" fill="#FFC107"/>
<path d="M2.17221 8.30558L7.22067 11.8934C8.5867 8.61604 11.895 6.30212 15.7664 6.30212C18.1166 6.30212 20.2548 7.16128 21.8828 8.56467L26.2291 4.353C23.4847 1.87454 19.8138 0.346069 15.7664 0.346069C9.86438 0.346069 4.746 3.57499 2.17221 8.30558Z" fill="#FF3D00"/>
<path d="M15.8946 31.1388C19.8761 31.1388 23.4938 29.5879 26.2291 27.0657L21.4584 22.9565C19.8588 24.1948 17.9042 24.8645 15.8946 24.8629C11.8854 24.8629 8.48122 22.2607 7.19876 18.6293L2.17221 22.5714C4.72325 27.6525 9.90394 31.1388 15.8946 31.1388Z" fill="#4CAF50"/>
<path d="M30.741 12.9193H29.5008V12.8556H15.644V18.9886H24.3453C23.7381 20.6877 22.6443 22.1725 21.1991 23.2594L21.2014 23.2579L25.9665 27.2734C25.6294 27.5786 31.0404 23.5883 31.0404 15.9221C31.0404 14.8941 30.9342 13.8906 30.741 12.9193Z" fill="#1976D2"/>
</svg>
